<?xml version="1.0" encoding="utf-8"?>
<!-- Generator: Adobe Illustrator 19.0.0, SVG Export Plug-In . SVG Version: 6.00 Build 0)  -->
<svg version="1.1" id="Layer_1" xmlns="http://www.w3.org/2000/svg" xmlns:xlink="http://www.w3.org/1999/xlink" x="0px" y="0px"
	 viewBox="0 0 612 792" style="enable-background:new 0 0 612 792;" xml:space="preserve">
<style type="text/css">
	.st0{fill-rule:evenodd;clip-rule:evenodd;fill:#A95DA2;}
	.st1{fill-rule:evenodd;clip-rule:evenodd;fill:#884282;}
	.st2{fill-rule:evenodd;clip-rule:evenodd;fill:#FDF3F0;}
	.st3{fill:#FFFFFF;}
</style>
<path id="XMLID_22_" class="st0" d="M614.9,237.3v302.5c0,86.5-70.8,157.3-157.3,157.3H155c-86.5,0-157.3-70.8-157.3-157.3V237.3
	C-2.3,150.8,68.5,80,155,80h302.5C544.1,80,614.9,150.8,614.9,237.3z"/>
<path id="XMLID_21_" class="st1" d="M447.7,273.1l32.6-32.6L614.9,375v164.8c0,86.5-70.8,157.3-157.3,157.3H232.1L74.8,539.8
	L447.7,273.1L447.7,273.1z"/>
<path id="XMLID_20_" class="st2" d="M140.2,237.3h332.3c6.8,0,12.3,6.1,12.3,13.5v229.4c0,7.4-5.6,13.5-12.3,13.5h12.3l62,28.8h0h0
	v7.6c0,5.4-4,9.7-8.9,9.7H74.8c-4.9,0-8.9-4.4-8.9-9.7v-7.6h0h0l62-28.8h12.3c-6.8,0-12.3-6.1-12.3-13.5V250.8
	C127.8,243.4,133.4,237.3,140.2,237.3z"/>
<rect id="XMLID_19_" x="146.3" y="264.1" class="st1" width="319.9" height="187.7"/>
<g>
	<path class="st3" d="M230.8,389.9L218.7,328h10.5l7.6,42.5l9.3-42.5h12.2l8.9,43.2L275,328h10.3L273,389.9h-10.9L252,343.7
		l-10,46.3H230.8L230.8,389.9z M290.3,389.9V328h10.2v61.9H290.3L290.3,389.9z M340.7,389.9V328h34.8v10.5h-24.6v14.6h21.2v10.5
		h-21.2v26.3H340.7L340.7,389.9z M383.7,389.9V328h10.2v61.9H383.7z"/>
	<rect id="XMLID_14_" x="308.2" y="355.7" class="st3" width="24.6" height="10.2"/>
</g>
</svg>
