<?xml version="1.0" encoding="utf-8"?>
<!-- Generator: Adobe Illustrator 19.0.0, SVG Export Plug-In . SVG Version: 6.00 Build 0)  -->
<svg version="1.1" id="Layer_1" xmlns="http://www.w3.org/2000/svg" xmlns:xlink="http://www.w3.org/1999/xlink" x="0px" y="0px"
	 viewBox="0 0 612 792" style="enable-background:new 0 0 612 792;" xml:space="preserve">
<style type="text/css">
	.st0{fill-rule:evenodd;clip-rule:evenodd;fill:#F8A81B;}
	.st1{fill-rule:evenodd;clip-rule:evenodd;fill:#D48E29;}
	.st2{fill-rule:evenodd;clip-rule:evenodd;fill:#FFF5E6;}
</style>
<path id="XMLID_21_" class="st0" d="M156.1,154h300.7c86,0,156.3,70.4,156.3,156.3V611c0,86-70.4,156.3-156.3,156.3H156.1
	C70.1,767.3-0.3,697-0.3,611V310.3C-0.3,224.4,70.1,154,156.1,154z"/>
<path id="XMLID_20_" class="st1" d="M368.5,356.6l96-95.3l148.6,148.6V611c0,86-70.4,156.3-156.3,156.3H343.6L219.5,643.2l78.2-1.9
	h0l-6-124.8L181.7,406.6L368.5,356.6z"/>
<g>
	<path id="XMLID_19_" class="st2" d="M450.6,337.9c-7.8,63.9-69.4,114-145.2,116.5v144.3c0,9.9,1,20,16.1,21.1
		c31.6,2.4,54.4,10.4,54.4,19.6c0,11.4-35.3,20.6-78.8,20.6c-43.5,0-78.8-9.2-78.8-20.6c0-9,22.4-16.5,53.4-19.5
		c13.6-1.3,17-13,17-20.6V454.2c-73.5-4.4-132.6-53.8-140.3-116.3H450.6z"/>
	<path id="XMLID_18_" class="st2" d="M464.5,261.3c-26.2,16-105.9,96.6-115,119.2C372.3,372.4,448.3,286,464.5,261.3z"/>
	<path id="XMLID_17_" class="st1" d="M382.2,337.9c-16.3,18-29.3,34.2-32.7,42.6c9.7-3.5,29.3-21.4,49.7-42.6H382.2z"/>
	<path id="XMLID_16_" class="st1" d="M382.8,349.7c10.3,8.7,9.5,26.7-1.9,40.1c-11.4,13.4-28.9,17.2-39.3,8.5
		c-10.3-8.7-9.5-26.7,1.9-40.1C354.9,344.8,372.4,341,382.8,349.7z"/>
	<path id="XMLID_15_" class="st1" d="M420.4,367.6c-13.6,40.3-62.6,70.2-121,70.2s-107.3-29.9-121-70.2H420.4z"/>
	<path id="XMLID_14_" class="st2" d="M337.5,367.6H390c-0.3,7.4-3.3,15.4-9.1,22.2c-11.4,13.4-28.9,17.2-39.3,8.5
		C333.6,391.5,332.3,379.1,337.5,367.6z"/>
</g>
</svg>
