<?xml version="1.0" encoding="utf-8"?>
<!-- Generator: Adobe Illustrator 19.0.0, SVG Export Plug-In . SVG Version: 6.00 Build 0)  -->
<svg version="1.1" id="Layer_1" xmlns="http://www.w3.org/2000/svg" xmlns:xlink="http://www.w3.org/1999/xlink" x="0px" y="0px"
	 viewBox="0 0 612 792" style="enable-background:new 0 0 612 792;" xml:space="preserve">
<style type="text/css">
	.st0{fill-rule:evenodd;clip-rule:evenodd;fill:#348171;}
	.st1{fill-rule:evenodd;clip-rule:evenodd;fill:#21554A;}
	.st2{fill-rule:evenodd;clip-rule:evenodd;fill:#F1F9F8;}
	.st3{fill-rule:evenodd;clip-rule:evenodd;fill:#FFFFFF;}
</style>
<g>
	<g>
		<path id="XMLID_19_" class="st0" d="M156.4,91h299.7C541.9,91,612,161.1,612,246.8v299.7c0,85.7-70.1,155.8-155.8,155.8H156.4
			c-85.7,0-155.8-70.1-155.8-155.8V246.8C0.6,161.1,70.7,91,156.4,91z"/>
		<path id="XMLID_18_" class="st1" d="M493.5,380.1l14.8-14.8L612,469v77.5c0,85.7-70.1,155.8-155.8,155.8h-187L104.3,537.5
			l28.2-281.7L263.7,387l16.9-63.7l89.1,44l78.1-33L493.5,380.1z"/>
		<path id="XMLID_17_" class="st2" d="M104.3,255.8h28.2v160.3h347.6v-50.9h28.2c0,57.4,0,114.8,0,172.2h-28.2v-79.2H132.5v79.2
			h-28.2C104.3,443.6,104.3,349.7,104.3,255.8z"/>
	</g>
	<circle id="XMLID_16_" class="st3" cx="179.9" cy="366.1" r="31.7"/>
	<path class="st2" d="M419.2,323.3H290.8v74.5h171v-32C461.7,342.4,442.6,323.3,419.2,323.3L419.2,323.3z M280.6,323.3h-12
		c-23.4,0-42.5,19.1-42.5,42.5v32h54.5V323.3z"/>
</g>
</svg>
