<?xml version="1.0" encoding="utf-8"?>
<!-- Generator: Adobe Illustrator 19.0.0, SVG Export Plug-In . SVG Version: 6.00 Build 0)  -->
<svg version="1.1" id="Layer_1" xmlns="http://www.w3.org/2000/svg" xmlns:xlink="http://www.w3.org/1999/xlink" x="0px" y="0px"
	 viewBox="0 0 612 792" style="enable-background:new 0 0 612 792;" xml:space="preserve">
<style type="text/css">
	.st0{fill-rule:evenodd;clip-rule:evenodd;fill:#63BBA9;}
	.st1{fill-rule:evenodd;clip-rule:evenodd;fill:#348877;}
	.st2{fill:#F1F9F8;}
	.st3{fill-rule:evenodd;clip-rule:evenodd;fill:#F1F9F8;}
</style>
<path id="XMLID_20_" class="st0" d="M612,247.5v299.7c0,85.7-70.1,155.8-155.8,155.8H156.4C70.7,703,0.6,632.9,0.6,547.2V247.5
	c0-85.7,70.1-155.8,155.8-155.8h299.7C541.9,91.6,612,161.8,612,247.5z"/>
<path id="XMLID_19_" class="st1" d="M322.8,182.5L612,471.7v75.5c0,85.7-70.1,155.8-155.8,155.8h-204l-84.3-84.3l9.7-220.9h-49.2
	l-16.8-13.6l194.8-101.3l-0.3-57.4L286,209.8l1.9-20.9l14.7-8.3L322.8,182.5z"/>
<g>
	<path id="XMLID_18_" class="st2" d="M311.1,260.3c0,2.7-2.2,4.8-4.8,4.8c-2.7,0-4.8-2.2-4.8-4.8v-23.7c0-4.3-0.2-7.1-0.9-8.8
		c-0.5-1.1-1.6-1.9-3.6-2.6c-4.9-1.8-9.1-5.1-12-9.3c-2.9-4.1-4.5-9.1-4.5-14.5c0-7,2.8-13.4,7.4-18c0.1-0.1,0.2-0.2,0.3-0.3
		c4.6-4.4,10.8-7.2,17.7-7.2c7,0,13.3,2.8,17.9,7.4l0,0l0,0c4.6,4.6,7.4,10.9,7.4,18c0,2.7-2.2,4.8-4.8,4.8c-2.7,0-4.8-2.2-4.8-4.8
		c0-4.3-1.8-8.3-4.6-11.1l0,0c-2.8-2.8-6.8-4.6-11.1-4.6c-4.2,0-8.1,1.7-10.9,4.4c-0.1,0.1-0.1,0.1-0.2,0.2
		c-2.8,2.8-4.6,6.8-4.6,11.1c0,3.3,1,6.4,2.8,9c1.8,2.6,4.4,4.7,7.5,5.8c4.7,1.7,7.4,4,9.1,7.8c1.4,3.2,1.7,7.1,1.7,12.7V260.3z"/>
	<path id="XMLID_17_" class="st3" d="M306.3,253.5c-30.3,0-32.7,29.7-45.7,42.1C226.8,328,116.7,358.9,107.3,377
		c-9,17.3-0.8,20.8,8.4,20.8h39.7v-12.9h-36L306,297l186.6,88h-35.4v12.9h39.7c9.2,0,17.4-3.5,8.4-20.8
		c-9.5-18.1-119.5-49-153.4-81.4C339,283.2,336.6,253.5,306.3,253.5z"/>
	<path id="XMLID_16_" class="st3" d="M163.9,384.9h284.7v196.7v7v25.3c0,2.7-1.7,4.8-3.9,4.8c-2.1,0-3.9-2.2-3.9-4.8v-25.3h-7.7
		v25.3c0,2.7-1.7,4.8-3.9,4.8c-2.1,0-3.9-2.2-3.9-4.8v-25.3h-7.7v25.3c0,2.7-1.7,4.8-3.9,4.8c-2.1,0-3.9-2.2-3.9-4.8v-25.3h-7.7
		v25.3c0,2.7-1.7,4.8-3.9,4.8c-2.1,0-3.9-2.2-3.9-4.8v-25.3h-7.7v25.3c0,2.7-1.7,4.8-3.9,4.8c-2.1,0-3.9-2.2-3.9-4.8v-25.3h-7.7
		v25.3c0,2.7-1.7,4.8-3.9,4.8c-2.1,0-3.9-2.2-3.9-4.8v-25.3h-7.7v25.3c0,2.7-1.7,4.8-3.9,4.8c-2.1,0-3.9-2.2-3.9-4.8v-25.3h-7.7
		v25.3c0,2.7-1.7,4.8-3.9,4.8c-2.1,0-3.9-2.2-3.9-4.8v-25.3h-7.7v25.3c0,2.7-1.7,4.8-3.9,4.8c-2.1,0-3.9-2.2-3.9-4.8v-25.3h-7.7
		v25.3c0,2.7-1.7,4.8-3.9,4.8c-2.1,0-3.9-2.2-3.9-4.8v-25.3h-7.7v25.3c0,2.7-1.7,4.8-3.9,4.8c-2.1,0-3.9-2.2-3.9-4.8v-25.3h-7.7
		v25.3c0,2.7-1.7,4.8-3.9,4.8c-2.1,0-3.9-2.2-3.9-4.8v-25.3H264v25.3c0,2.7-1.7,4.8-3.9,4.8c-2.1,0-3.9-2.2-3.9-4.8v-25.3h-7.7v25.3
		c0,2.7-1.7,4.8-3.9,4.8c-2.1,0-3.9-2.2-3.9-4.8v-25.3h-7.7v25.3c0,2.7-1.7,4.8-3.9,4.8c-2.1,0-3.9-2.2-3.9-4.8v-25.3h-7.7v25.3
		c0,2.7-1.7,4.8-3.9,4.8c-2.1,0-3.9-2.2-3.9-4.8v-25.3h-7.7v25.3c0,2.7-1.7,4.8-3.9,4.8c-2.1,0-3.9-2.2-3.9-4.8v-25.3h-7.7v25.3
		c0,2.7-1.7,4.8-3.9,4.8c-2.1,0-3.9-2.2-3.9-4.8v-25.3h-7.7v25.3c0,2.7-1.7,4.8-3.9,4.8c-2.1,0-3.9-2.2-3.9-4.8v-25.3v-7V384.9z"/>
	<rect id="XMLID_15_" x="163.9" y="563.9" class="st1" width="284.7" height="13.7"/>
	<rect id="XMLID_14_" x="163.9" y="547.9" class="st1" width="284.7" height="6.9"/>
</g>
</svg>
