<?xml version="1.0" encoding="utf-8"?>
<!-- Generator: Adobe Illustrator 19.0.0, SVG Export Plug-In . SVG Version: 6.00 Build 0)  -->
<svg version="1.1" id="Layer_1" xmlns="http://www.w3.org/2000/svg" xmlns:xlink="http://www.w3.org/1999/xlink" x="0px" y="0px"
	 viewBox="0 0 612 792" style="enable-background:new 0 0 612 792;" xml:space="preserve">
<style type="text/css">
	.st0{fill-rule:evenodd;clip-rule:evenodd;fill:#4E8EB4;}
	.st1{fill-rule:evenodd;clip-rule:evenodd;fill:#286081;}
	.st2{fill:#181818;}
	.st3{fill:#FFFFFF;}
	.st4{fill:#010101;}
	.st5{fill:#364A5E;}
	.st6{fill:#161616;}
</style>
<path id="XMLID_14_" class="st0" d="M610.8,287.2v298.5c0,85.4-69.8,155.2-155.2,155.2H157.1c-85.4,0-155.2-69.8-155.2-155.2V287.2
	C1.8,201.8,71.7,132,157.1,132h298.5C540.9,132,610.8,201.8,610.8,287.2z"/>
<path id="XMLID_27_" class="st1" d="M231.7,616.3l120.5-74.1L238.8,429.3l23.6-23.6l-24.3-24.3l80.2-18.8l61.8,61.8l-69.6-60
	l32.1-8.8l9.9-9.9l2.6,2.6l26.8-10.1l-25.4,0.6l27.3-80.6L610,485.1v127.1c0,69.2-56.6,125.9-125.9,125.9h-127L231.7,616.3z"/>
<rect id="XMLID_20_" x="83" y="607.3" class="st2" width="420.7" height="25.4"/>
<rect id="XMLID_19_" x="64.6" y="253.1" class="st3" width="461.7" height="367.8"/>
<rect id="XMLID_18_" x="87.3" y="270.1" class="st4" width="416.3" height="285.5"/>
<rect id="XMLID_17_" x="92.1" y="275.1" class="st5" width="407.1" height="273.9"/>
<rect id="XMLID_16_" x="237" y="580.3" class="st6" width="118" height="12"/>
</svg>
