<svg width="48" height="48" viewBox="0 0 48 48" fill="none" xmlns="http://www.w3.org/2000/svg">
<rect width="48" height="48" fill="#E5E5E5"/>
<g clip-path="url(#clip0)">
<rect width="48" height="48" fill="white"/>
<g filter="url(#filter0_d)">
<path d="M34.5705 15.5C34.5705 18.5738 33.2851 25.1399 31.1475 30.9688C30.083 33.8716 28.8448 36.4845 27.5201 38.3424C26.1345 40.2858 24.948 41 24.0705 41C23.193 41 22.0066 40.2858 20.6209 38.3424C19.2962 36.4845 18.058 33.8716 16.9935 30.9688C14.8559 25.1399 13.5705 18.5738 13.5705 15.5C13.5705 9.70101 18.2715 5 24.0705 5C29.8695 5 34.5705 9.70101 34.5705 15.5Z" stroke="#152C5B" stroke-width="3"/>
</g>
<circle cx="24.5" cy="14.5" r="4" stroke="#4663E3" stroke-width="3"/>
</g>
<defs>
<filter id="filter0_d" x="8.07053" y="3.5" width="32" height="47" filterUnits="userSpaceOnUse" color-interpolation-filters="sRGB">
<feFlood flood-opacity="0" result="BackgroundImageFix"/>
<feColorMatrix in="SourceAlpha" type="matrix" values="0 0 0 0 0 0 0 0 0 0 0 0 0 0 0 0 0 0 127 0"/>
<feOffset dy="4"/>
<feGaussianBlur stdDeviation="2"/>
<feColorMatrix type="matrix" values="0 0 0 0 0 0 0 0 0 0 0 0 0 0 0 0 0 0 0.25 0"/>
<feBlend mode="normal" in2="BackgroundImageFix" result="effect1_dropShadow"/>
<feBlend mode="normal" in="SourceGraphic" in2="effect1_dropShadow" result="shape"/>
</filter>
<clipPath id="clip0">
<rect width="48" height="48" fill="white"/>
</clipPath>
</defs>
</svg>
