<svg width="48" height="48" viewBox="0 0 48 48" fill="none" xmlns="http://www.w3.org/2000/svg">
<rect width="48" height="48" fill="#E5E5E5"/>
<rect width="48" height="48" fill="white"/>
<mask id="path-1-inside-1" fill="white">
<path fill-rule="evenodd" clip-rule="evenodd" d="M19.2361 10C18.4785 10 17.786 10.428 17.4472 11.1056L15 16H8C3.58172 16 0 19.5817 0 24V36C0 40.4183 3.58172 44 8 44H40C44.4183 44 48 40.4183 48 36V24C48 19.5817 44.4183 16 40 16H33.3L31.1307 11.1793C30.8077 10.4616 30.0939 10 29.3068 10H19.2361Z"/>
</mask>
<path d="M17.4472 11.1056L20.1305 12.4472L20.1305 12.4472L17.4472 11.1056ZM15 16V19H16.8541L17.6833 17.3416L15 16ZM33.3 16L30.5642 17.2311L31.3602 19H33.3V16ZM31.1307 11.1793L28.3949 12.4104L28.3949 12.4104L31.1307 11.1793ZM20.1305 12.4472C19.9611 12.786 19.6148 13 19.2361 13V7C17.3422 7 15.6109 8.07001 14.7639 9.76393L20.1305 12.4472ZM17.6833 17.3416L20.1305 12.4472L14.7639 9.76393L12.3167 14.6584L17.6833 17.3416ZM8 19H15V13H8V19ZM3 24C3 21.2386 5.23858 19 8 19V13C1.92487 13 -3 17.9249 -3 24H3ZM3 36V24H-3V36H3ZM8 41C5.23858 41 3 38.7614 3 36H-3C-3 42.0751 1.92487 47 8 47V41ZM40 41H8V47H40V41ZM45 36C45 38.7614 42.7614 41 40 41V47C46.0751 47 51 42.0751 51 36H45ZM45 24V36H51V24H45ZM40 19C42.7614 19 45 21.2386 45 24H51C51 17.9249 46.0751 13 40 13V19ZM33.3 19H40V13H33.3V19ZM28.3949 12.4104L30.5642 17.2311L36.0358 14.7689L33.8664 9.94818L28.3949 12.4104ZM29.3068 13C28.9133 13 28.5564 12.7692 28.3949 12.4104L33.8664 9.94818C33.059 8.15392 31.2744 7 29.3068 7V13ZM19.2361 13H29.3068V7H19.2361V13Z" fill="#152C5B" mask="url(#path-1-inside-1)"/>
<circle cx="24.5" cy="29.5" r="6" stroke="#4663E3" stroke-width="3"/>
</svg>
